{
  "accessors": [
    {
      "bufferView": 2,
      "componentType": 5126,
      "count": 65532,
      "max": [
        0.9994750022888184,
        0.3631899952888489,
        0.5473260283470154
      ],
      "min": [
        -1.0,
        -0.3667140007019043,
        -0.5399770140647888
      ],
      "type": "VEC3"
    },
    {
      "bufferView": 2,
      "byteOffset": 786384,
      "componentType": 5126,
      "count": 65532,
      "max": [
        0.9999816417694092,
        0.9997124671936035,
        0.9999930262565613
      ],
      "min": [
        -0.9999930262565613,
        -0.9999922513961792,
        -0.9999991059303284
      ],
      "type": "VEC3"
    },
    {
      "bufferView": 3,
      "componentType": 5126,
      "count": 65532,
      "max": [
        0.9997568130493164,
        0.9999357461929321,
        0.9999989867210388,
        1.0
      ],
      "min": [
        -0.9999926090240479,
        -0.9998788833618164,
        -0.9999988079071045,
        -1.0
      ],
      "type": "VEC4"
    },
    {
      "bufferView": 1,
      "componentType": 5126,
      "count": 65532,
      "max": [
        0.9004600048065186,
        0.717989981174469
      ],
      "min": [
        0.007379999849945307,
        0.0035800000187009573
      ],
      "type": "VEC2"
    },
    {
      "bufferView": 0,
      "componentType": 5125,
      "count": 364743,
      "type": "SCALAR"
    },
    {
      "bufferView": 2,
      "byteOffset": 1572768,
      "componentType": 5126,
      "count": 65532,
      "max": [
        0.8684729933738708,
        0.37184101343154907,
        0.33778199553489685
      ],
      "min": [
        -0.9412689805030823,
        -0.37184101343154907,
        -0.5474079847335815
      ],
      "type": "VEC3"
    },
    {
      "bufferView": 2,
      "byteOffset": 2359152,
      "componentType": 5126,
      "count": 65532,
      "max": [
        0.9995895028114319,
        0.9999966621398926,
        0.9999865889549255
      ],
      "min": [
        -0.8824408650398254,
        -0.9999972581863403,
        -0.9999996423721313
      ],
      "type": "VEC3"
    },
    {
      "bufferView": 3,
      "byteOffset": 1048512,
      "componentType": 5126,
      "count": 65532,
      "max": [
        0.9999889731407166,
        0.9999566078186035,
        0.9997583031654358,
        1.0
      ],
      "min": [
        -0.9998424053192139,
        -0.9993807673454285,
        -0.947173535823822,
        1.0
      ],
      "type": "VEC4"
    },
    {
      "bufferView": 1,
      "byteOffset": 524256,
      "componentType": 5126,
      "count": 65532,
      "max": [
        0.8106300234794617,
        0.992609977722168
      ],
      "min": [
        0.007379999849945307,
        0.4359700083732605
      ],
      "type": "VEC2"
    },
    {
      "bufferView": 0,
      "byteOffset": 1458972,
      "componentType": 5125,
      "count": 360699,
      "type": "SCALAR"
    },
    {
      "bufferView": 2,
      "byteOffset": 3145536,
      "componentType": 5126,
      "count": 65532,
      "max": [
        1.0,
        0.37184101343154907,
        0.5474079847335815
      ],
      "min": [
        -0.9722399711608887,
        -0.32501301169395447,
        -0.5467389822006226
      ],
      "type": "VEC3"
    },
    {
      "bufferView": 2,
      "byteOffset": 3931920,
      "componentType": 5126,
      "count": 65532,
      "max": [
        0.9999938607215881,
        0.9999984502792358,
        0.9999682307243347
      ],
      "min": [
        -0.9998230934143066,
        -0.9999716281890869,
        -0.9999996423721313
      ],
      "type": "VEC3"
    },
    {
      "bufferView": 3,
      "byteOffset": 2097024,
      "componentType": 5126,
      "count": 65532,
      "max": [
        0.9994515180587769,
        0.9999976754188538,
        0.999472975730896,
        1.0
      ],
      "min": [
        -0.9999799728393555,
        -0.9999606013298035,
        -0.999717652797699,
        -1.0
      ],
      "type": "VEC4"
    },
    {
      "bufferView": 1,
      "byteOffset": 1048512,
      "componentType": 5126,
      "count": 65532,
      "max": [
        0.9725599884986877,
        0.992609977722168
      ],
      "min": [
        0.014890000224113464,
        0.1263599991798401
      ],
      "type": "VEC2"
    },
    {
      "bufferView": 0,
      "byteOffset": 2901768,
      "componentType": 5125,
      "count": 338799,
      "type": "SCALAR"
    },
    {
      "bufferView": 2,
      "byteOffset": 4718304,
      "componentType": 5126,
      "count": 7308,
      "max": [
        1.0,
        0.3224020004272461,
        0.33169400691986084
      ],
      "min": [
        -0.9998090267181396,
        -0.27287399768829346,
        -0.5324370265007019
      ],
      "type": "VEC3"
    },
    {
      "bufferView": 2,
      "byteOffset": 4806000,
      "componentType": 5126,
      "count": 7308,
      "max": [
        0.9999938607215881,
        0.9885413646697998,
        0.9999673366546631
      ],
      "min": [
        -0.9997097849845886,
        -0.9597505331039429,
        -0.9697803854942322
      ],
      "type": "VEC3"
    },
    {
      "bufferView": 3,
      "byteOffset": 3145536,
      "componentType": 5126,
      "count": 7308,
      "max": [
        0.9779327511787415,
        0.9999976754188538,
        0.9862746596336365,
        1.0
      ],
      "min": [
        -0.864710807800293,
        -0.16035716235637665,
        -0.9952117204666138,
        1.0
      ],
      "type": "VEC4"
    },
    {
      "bufferView": 1,
      "byteOffset": 1572768,
      "componentType": 5126,
      "count": 7308,
      "max": [
        0.9069499969482422,
        0.6388300061225891
      ],
      "min": [
        0.7092900276184082,
        0.06397999823093414
      ],
      "type": "VEC2"
    },
    {
      "bufferView": 0,
      "byteOffset": 4256964,
      "componentType": 5125,
      "count": 29181,
      "type": "SCALAR"
    }
  ],
  "asset": {
    "extras": {
      "author": "arnelubbers (https://sketchfab.com/arnelubbers)",
      "license": "CC-BY-4.0 (http://creativecommons.org/licenses/by/4.0/)",
      "source": "https://sketchfab.com/3d-models/nike-air-max-95-animal-638fc15fedce42c2ac85f1feed724eb0",
      "title": "Nike Air Max 95 Animal"
    },
    "generator": "Sketchfab-12.68.0",
    "version": "2.0"
  },
  "bufferViews": [
    {
      "buffer": 0,
      "byteLength": 4373688,
      "name": "floatBufferViews",
      "target": 34963
    },
    {
      "buffer": 0,
      "byteLength": 1631232,
      "byteOffset": 4373688,
      "byteStride": 8,
      "name": "floatBufferViews",
      "target": 34962
    },
    {
      "buffer": 0,
      "byteLength": 4893696,
      "byteOffset": 6004920,
      "byteStride": 12,
      "name": "floatBufferViews",
      "target": 34962
    },
    {
      "buffer": 0,
      "byteLength": 3262464,
      "byteOffset": 10898616,
      "byteStride": 16,
      "name": "floatBufferViews",
      "target": 34962
    }
  ],
  "buffers": [
    {
      "byteLength": 14161080,
      "uri": "scene.bin"
    }
  ],
  "images": [
    {
      "uri": "textures/1001_baseColor.jpeg"
    },
    {
      "uri": "textures/1001_metallicRoughness.png"
    },
    {
      "uri": "textures/1001_normal.png"
    }
  ],
  "materials": [
    {
      "doubleSided": true,
      "name": "1001",
      "normalTexture": {
        "index": 2
      },
      "pbrMetallicRoughness": {
        "baseColorTexture": {
          "index": 0
        },
        "metallicRoughnessTexture": {
          "index": 1
        }
      }
    }
  ],
  "meshes": [
    {
      "name": "defaultMaterial",
      "primitives": [
        {
          "attributes": {
            "NORMAL": 1,
            "POSITION": 0,
            "TANGENT": 2,
            "TEXCOORD_0": 3
          },
          "indices": 4,
          "material": 0,
          "mode": 4
        }
      ]
    },
    {
      "name": "defaultMaterial",
      "primitives": [
        {
          "attributes": {
            "NORMAL": 6,
            "POSITION": 5,
            "TANGENT": 7,
            "TEXCOORD_0": 8
          },
          "indices": 9,
          "material": 0,
          "mode": 4
        }
      ]
    },
    {
      "name": "defaultMaterial",
      "primitives": [
        {
          "attributes": {
            "NORMAL": 11,
            "POSITION": 10,
            "TANGENT": 12,
            "TEXCOORD_0": 13
          },
          "indices": 14,
          "material": 0,
          "mode": 4
        }
      ]
    },
    {
      "name": "defaultMaterial",
      "primitives": [
        {
          "attributes": {
            "NORMAL": 16,
            "POSITION": 15,
            "TANGENT": 17,
            "TEXCOORD_0": 18
          },
          "indices": 19,
          "material": 0,
          "mode": 4
        }
      ]
    }
  ],
  "nodes": [
    {
      "children": [
        1
      ],
      "matrix": [
        1.0,
        0.0,
        0.0,
        0.0,
        0.0,
        -1.0,
        -4.440892098500626e-16,
        0.0,
        0.0,
        4.440892098500626e-16,
        -1.0,
        0.0,
        0.0,
        -9.916283261190981e-07,
        -8.770844601713181e-07,
        1.0
      ],
      "name": "Sketchfab_model"
    },
    {
      "children": [
        2
      ],
      "matrix": [
        1.0,
        0.0,
        0.0,
        0.0,
        0.0,
        -4.371139006309477e-08,
        0.999999999999999,
        0.0,
        0.0,
        -0.999999999999999,
        -4.371139006309477e-08,
        0.0,
        0.0,
        0.0,
        0.0,
        1.0
      ],
      "name": "Collada visual scene group"
    },
    {
      "children": [
        3,
        4,
        5,
        6
      ],
      "name": "g"
    },
    {
      "mesh": 0,
      "name": "defaultMaterial"
    },
    {
      "mesh": 1,
      "name": "defaultMaterial"
    },
    {
      "mesh": 2,
      "name": "defaultMaterial"
    },
    {
      "mesh": 3,
      "name": "defaultMaterial"
    }
  ],
  "samplers": [
    {
      "magFilter": 9729,
      "minFilter": 9987,
      "wrapS": 10497,
      "wrapT": 10497
    }
  ],
  "scene": 0,
  "scenes": [
    {
      "name": "Sketchfab_Scene",
      "nodes": [
        0
      ]
    }
  ],
  "textures": [
    {
      "sampler": 0,
      "source": 0
    },
    {
      "sampler": 0,
      "source": 1
    },
    {
      "sampler": 0,
      "source": 2
    }
  ]
}
