<svg width="42" height="42" viewBox="0 0 42 42" fill="none" xmlns="http://www.w3.org/2000/svg">
<path d="M30.1391 26.8025C30.1391 27.1325 30.0658 27.4717 29.9099 27.8017C29.7541 28.1317 29.5524 28.4433 29.2866 28.7367C28.8374 29.2317 28.3424 29.5892 27.7833 29.8183C27.2333 30.0475 26.6374 30.1667 25.9958 30.1667C25.0608 30.1667 24.0616 29.9467 23.0074 29.4975C21.9533 29.0483 20.8991 28.4433 19.8541 27.6825C18.7999 26.9125 17.8008 26.06 16.8474 25.1158C15.9033 24.1625 15.0508 23.1633 14.2899 22.1183C13.5383 21.0733 12.9333 20.0283 12.4933 18.9925C12.0533 17.9475 11.8333 16.9483 11.8333 15.995C11.8333 15.3717 11.9433 14.7758 12.1633 14.2258C12.3833 13.6667 12.7316 13.1533 13.2174 12.695C13.8041 12.1175 14.4458 11.8333 15.1241 11.8333C15.3808 11.8333 15.6374 11.8883 15.8666 11.9983C16.1049 12.1083 16.3158 12.2733 16.4808 12.5117L18.6074 15.5092C18.7724 15.7383 18.8916 15.9492 18.9741 16.1508C19.0566 16.3433 19.1024 16.5358 19.1024 16.71C19.1024 16.93 19.0383 17.15 18.9099 17.3608C18.7908 17.5717 18.6166 17.7917 18.3966 18.0117L17.6999 18.7358C17.5991 18.8367 17.5533 18.9558 17.5533 19.1025C17.5533 19.1758 17.5624 19.24 17.5808 19.3133C17.6083 19.3867 17.6358 19.4417 17.6541 19.4967C17.8191 19.7992 18.1033 20.1933 18.5066 20.67C18.9191 21.1467 19.3591 21.6325 19.8358 22.1183C20.3308 22.6042 20.8074 23.0533 21.2933 23.4658C21.7699 23.8692 22.1641 24.1442 22.4758 24.3092C22.5216 24.3275 22.5766 24.355 22.6408 24.3825C22.7141 24.41 22.7874 24.4192 22.8699 24.4192C23.0258 24.4192 23.1449 24.3642 23.2458 24.2633L23.9424 23.5758C24.1716 23.3467 24.3916 23.1725 24.6024 23.0625C24.8133 22.9342 25.0241 22.87 25.2533 22.87C25.4274 22.87 25.6108 22.9067 25.8124 22.9892C26.0141 23.0717 26.2249 23.1908 26.4541 23.3467L29.4883 25.5008C29.7266 25.6658 29.8916 25.8583 29.9924 26.0875C30.0841 26.3167 30.1391 26.5458 30.1391 26.8025Z" stroke="#FBFBFB" stroke-width="1.5" stroke-miterlimit="10"/>
</svg>
