<svg width="100" height="100" viewBox="0 0 100 100" fill="none" xmlns="http://www.w3.org/2000/svg">
<g clip-path="url(#clip0_175_247)">
<path fill-rule="evenodd" clip-rule="evenodd" d="M73.7482 59.239C72.6144 58.4455 71.1414 57.9915 69.3265 57.9915C67.6265 57.9915 66.1531 58.4455 64.9072 59.239C63.6596 60.2579 62.9794 61.5064 62.9794 63.0926C62.9794 64.6797 63.6596 65.8132 64.9072 66.8329C66.1531 67.6264 67.6269 68.0805 69.3265 68.0805C71.1414 68.0805 72.6144 67.6264 73.7482 66.8329C75.1083 65.8132 75.6752 64.6797 75.6752 63.0926C75.6748 61.5064 75.1083 60.2579 73.7482 59.239ZM69.3261 60.8253C70.1204 60.8253 70.687 61.0523 71.2539 61.3918C71.7079 61.8459 72.0474 62.2982 72.0474 62.8656C72.1599 64.4527 71.2539 65.2462 69.3261 65.2462C68.5325 65.2462 67.8531 65.0192 67.2866 64.5652C66.8325 64.1119 66.6063 63.5454 66.6063 62.8652C66.7188 62.2978 66.9467 61.8454 67.3991 61.3914C67.966 61.0523 68.5325 60.8253 69.3261 60.8253ZM88.3698 58.3309H84.2892L80.3223 62.0729V55.2717H76.5812V67.8535H80.3223V62.7523L84.0622 67.8535H88.8239L83.9497 62.4124L88.3698 58.3309ZM42.9155 58.2185C40.9881 58.2185 39.5151 58.6725 38.3812 59.4644C37.2478 60.3725 36.6808 61.5064 36.5675 63.0926C36.5675 66.1527 38.7211 67.7406 43.1425 67.8535H48.6969V65.2466H43.3687C41.8953 65.1325 40.8752 64.7926 40.5348 64.1128C40.0816 63.4325 40.0816 62.7527 40.4215 62.0733C40.8752 61.2798 41.7816 60.8257 42.9155 60.8257H45.1824L42.6884 64.1128H46.2025L48.6965 60.9394V58.2189L42.9155 58.2185ZM53.6839 55.2717H49.8299V67.7406H56.8572C58.4452 67.7406 59.6911 67.2865 60.5983 66.3797C61.6189 65.5861 62.0721 64.4527 62.1854 63.0926C62.1854 60.3721 61.0524 58.8979 58.7851 58.4455L55.6117 58.3314L53.9109 60.8257H55.3847C57.652 60.8257 58.6718 61.5068 58.6718 63.093C58.5585 64.4531 57.5387 65.2466 55.6117 65.2466H53.6839V55.2717ZM11.1763 55.2717V67.7406H15.0303V58.1048H18.6576C19.4508 58.3309 20.0177 58.785 19.9048 59.691C19.9048 60.2575 19.6778 60.7116 19.2246 60.8249L15.5972 61.1644L19.5645 67.8526H24.212L20.358 62.639C22.7387 62.5249 23.8721 61.2789 23.6451 59.0116C23.6451 57.764 23.0782 56.8572 22.0584 56.1778C21.1512 55.6112 20.0177 55.2713 18.6576 55.2713L11.1763 55.2717Z" fill="#0F0F0F"/>
<path fill-rule="evenodd" clip-rule="evenodd" d="M30.2195 58.2185C28.2926 58.2185 26.8192 58.6725 25.6853 59.4644C24.5519 60.258 23.9849 61.5064 23.9849 62.9793C23.872 66.1527 26.0256 67.741 30.3329 67.741H36.0005V65.2466H30.6736C29.1994 65.1325 28.1797 64.7926 27.8398 64.1128C27.3861 63.4325 27.3861 62.7527 27.7264 62.0733C28.1797 61.2798 29.0861 60.8257 30.22 60.8257H32.4869L29.9934 64.1128H33.5074L36.001 60.8257V58.2189L30.2195 58.2185ZM50.3968 35.3207L56.2906 38.9481L65.6986 35.4344C68.8736 34.4143 72.9542 33.2804 77.8279 31.92C65.8131 32.9405 56.7447 33.9603 50.3968 35.3207ZM45.863 39.1751L40.6485 37.8147C37.7013 38.6086 34.8675 39.855 32.2607 41.4425C29.653 43.0287 27.6131 44.8432 26.2527 46.7702H35.0945C35.7748 45.7497 36.9082 44.6158 38.3816 43.4823C40.5348 41.6691 43.0291 40.3086 45.863 39.1751ZM52.0976 41.3283L47.6766 39.8545C46.6561 40.3086 45.4097 40.8751 43.9355 41.8948C41.8952 43.2553 40.0816 44.9557 38.4949 46.7702H46.7694C47.9028 44.9557 49.7165 43.1424 52.0976 41.3283ZM42.009 31.92H24.3257L42.0085 36.6812C49.8298 39.061 57.0842 41.7824 63.7733 44.6158L42.009 31.92Z" fill="#0F0F0F"/>
</g>
<defs>
<clipPath id="clip0_175_247">
<rect width="80" height="80" fill="white" transform="translate(10 10)"/>
</clipPath>
</defs>
</svg>
