<svg width="36" height="36" viewBox="0 0 36 36" fill="none" xmlns="http://www.w3.org/2000/svg">
<path d="M17.9999 9C10.6049 9 4.81494 12 4.81494 15.945C4.81494 19.62 9.83994 22.53 16.4999 22.92L14.2649 25.14C13.8263 25.5792 13.8263 26.2908 14.2649 26.73C14.7093 27.1704 15.4256 27.1704 15.8699 26.73L19.9649 22.635C20.4036 22.1958 20.4036 21.4842 19.9649 21.045L15.8699 16.95C15.4223 16.5176 14.7126 16.5176 14.2649 16.95C13.8263 17.3892 13.8263 18.1008 14.2649 18.54L16.3949 20.655C10.8299 20.28 7.06494 18 7.06494 15.945C7.06494 13.89 11.5649 11.19 17.9999 11.19C24.4349 11.19 28.9349 13.695 28.9349 15.945C28.9349 17.445 27.0299 18.945 24.0749 19.86C23.4785 20.0423 23.1427 20.6735 23.3249 21.27C23.5072 21.8665 24.1385 22.2023 24.7349 22.02C28.7699 20.775 31.1849 18.51 31.1849 16.02C31.1849 12 25.3949 9 17.9999 9Z" fill="#09002D"/>
</svg>
