<svg width="42" height="42" viewBox="0 0 42 42" fill="none" xmlns="http://www.w3.org/2000/svg">
<path d="M11.8333 11.8333H13.4283C14.4183 11.8333 15.1974 12.6858 15.1149 13.6667L14.3541 22.7967C14.2258 24.2908 15.4082 25.5742 16.9116 25.5742H26.6741C27.9941 25.5742 29.1491 24.4925 29.2499 23.1817L29.7449 16.3067C29.8549 14.785 28.6999 13.5475 27.1691 13.5475H15.3349" stroke="#FBFBFB" stroke-width="1.5" stroke-miterlimit="10" stroke-linecap="round" stroke-linejoin="round"/>
<path d="M24.8958 30.1667C25.5287 30.1667 26.0417 29.6537 26.0417 29.0208C26.0417 28.388 25.5287 27.875 24.8958 27.875C24.263 27.875 23.75 28.388 23.75 29.0208C23.75 29.6537 24.263 30.1667 24.8958 30.1667Z" stroke="white" stroke-width="1.5" stroke-miterlimit="10" stroke-linecap="round" stroke-linejoin="round"/>
<path d="M17.5626 30.1667C18.1954 30.1667 18.7084 29.6537 18.7084 29.0208C18.7084 28.388 18.1954 27.875 17.5626 27.875C16.9298 27.875 16.4167 28.388 16.4167 29.0208C16.4167 29.6537 16.9298 30.1667 17.5626 30.1667Z" stroke="white" stroke-width="1.5" stroke-miterlimit="10" stroke-linecap="round" stroke-linejoin="round"/>
<path d="M18.25 17.3333H29.25" stroke="white" stroke-width="1.5" stroke-miterlimit="10" stroke-linecap="round" stroke-linejoin="round"/>
</svg>
