<svg width="42" height="42" viewBox="0 0 42 42" fill="none" xmlns="http://www.w3.org/2000/svg">
<path d="M21.1466 19.9642C21.0549 19.955 20.9449 19.955 20.8441 19.9642C18.6624 19.8908 16.9299 18.1033 16.9299 15.9033C16.9299 13.6575 18.7449 11.8333 20.9999 11.8333C23.2458 11.8333 25.0699 13.6575 25.0699 15.9033C25.0608 18.1033 23.3283 19.8908 21.1466 19.9642Z" stroke="#FBFBFB" stroke-width="1.5" stroke-linecap="round" stroke-linejoin="round"/>
<path d="M16.5634 23.3467C14.3451 24.8317 14.3451 27.2517 16.5634 28.7275C19.0842 30.4142 23.2184 30.4142 25.7392 28.7275C27.9576 27.2425 27.9576 24.8225 25.7392 23.3467C23.2276 21.6692 19.0934 21.6692 16.5634 23.3467Z" stroke="white" stroke-width="1.5" stroke-linecap="round" stroke-linejoin="round"/>
</svg>
