<svg width="41" height="41" viewBox="0 0 41 41" fill="none" xmlns="http://www.w3.org/2000/svg">
<path d="M20.5 13.4531C19.1063 13.4531 17.7438 13.8664 16.585 14.6407C15.4261 15.4151 14.5229 16.5156 13.9895 17.8033C13.4562 19.0909 13.3166 20.5078 13.5885 21.8748C13.8604 23.2417 14.5316 24.4974 15.5171 25.4829C16.5026 26.4684 17.7583 27.1396 19.1252 27.4115C20.4922 27.6834 21.9091 27.5438 23.1967 27.0105C24.4844 26.4771 25.5849 25.5739 26.3593 24.415C27.1336 23.2562 27.5469 21.8937 27.5469 20.5C27.5448 18.6317 26.8017 16.8405 25.4806 15.5194C24.1595 14.1983 22.3683 13.4552 20.5 13.4531ZM20.5 26.2656C19.3597 26.2656 18.2449 25.9275 17.2968 25.2939C16.3486 24.6604 15.6096 23.7599 15.1733 22.7064C14.7369 21.6529 14.6227 20.4936 14.8452 19.3752C15.0676 18.2568 15.6168 17.2294 16.4231 16.4231C17.2294 15.6168 18.2568 15.0676 19.3752 14.8452C20.4936 14.6227 21.6529 14.7369 22.7064 15.1733C23.7599 15.6096 24.6604 16.3486 25.2939 17.2968C25.9275 18.2449 26.2656 19.3597 26.2656 20.5C26.2639 22.0286 25.6559 23.4941 24.575 24.575C23.4941 25.6559 22.0286 26.2639 20.5 26.2656ZM27.5469 5.125H13.4531C11.2451 5.1275 9.1283 6.00573 7.56701 7.56701C6.00573 9.1283 5.1275 11.2451 5.125 13.4531V27.5469C5.1275 29.7549 6.00573 31.8717 7.56701 33.433C9.1283 34.9943 11.2451 35.8725 13.4531 35.875H27.5469C29.7549 35.8725 31.8717 34.9943 33.433 33.433C34.9943 31.8717 35.8725 29.7549 35.875 27.5469V13.4531C35.8725 11.2451 34.9943 9.1283 33.433 7.56701C31.8717 6.00573 29.7549 5.1275 27.5469 5.125ZM34.5938 27.5469C34.5916 29.4152 33.8485 31.2063 32.5274 32.5274C31.2063 33.8485 29.4152 34.5916 27.5469 34.5938H13.4531C11.5848 34.5916 9.79365 33.8485 8.47256 32.5274C7.15147 31.2063 6.40836 29.4152 6.40625 27.5469V13.4531C6.40836 11.5848 7.15147 9.79365 8.47256 8.47256C9.79365 7.15147 11.5848 6.40836 13.4531 6.40625H27.5469C29.4152 6.40836 31.2063 7.15147 32.5274 8.47256C33.8485 9.79365 34.5916 11.5848 34.5938 13.4531V27.5469ZM30.1094 12.1719C30.1094 12.4253 30.0342 12.673 29.8934 12.8837C29.7527 13.0944 29.5526 13.2586 29.3184 13.3556C29.0843 13.4526 28.8267 13.4779 28.5782 13.4285C28.3296 13.3791 28.1013 13.257 27.9221 13.0779C27.743 12.8987 27.6209 12.6704 27.5715 12.4218C27.5221 12.1733 27.5474 11.9157 27.6444 11.6816C27.7414 11.4474 27.9056 11.2473 28.1163 11.1066C28.327 10.9658 28.5747 10.8906 28.8281 10.8906C29.1678 10.891 29.4935 11.0261 29.7337 11.2663C29.9739 11.5065 30.109 11.8322 30.1094 12.1719Z" fill="white"/>
</svg>
