<svg width="100" height="100" viewBox="0 0 100 100" fill="none" xmlns="http://www.w3.org/2000/svg">
<path fill-rule="evenodd" clip-rule="evenodd" d="M32.3015 51.0406C13.6546 72.3212 26.0183 80.6311 26.0183 80.6311C36.4899 87.3199 55.6777 67.3223 55.6777 67.3223C65.9452 58.2689 73.5128 42.5956 73.5128 42.5956C83.2409 23.1381 72.4319 18.9497 72.4319 18.9497C62.8384 13.6804 44.4618 32.0563 44.4618 32.0563L45.2723 32.5971C60.8105 19.0856 66.0811 24.7604 66.0811 24.7604C72.1609 31.381 61.6223 43.8117 61.6223 43.8117C61.8913 40.9746 60.4055 35.0286 49.4614 39.0825C38.5172 43.1364 32.3015 51.0406 32.3015 51.0406ZM45.2723 48.8112C56.2172 38.8127 58.9191 43.1363 58.9191 43.1363C61.8914 47.3247 53.5153 55.4318 53.5146 55.4318C44.3266 65.5654 39.7327 61.5122 39.7327 61.5122C36.7604 57.4584 45.2723 48.8112 45.2723 48.8112Z" fill="black"/>
</svg>
