<svg width="100" height="100" viewBox="0 0 100 100" fill="none" xmlns="http://www.w3.org/2000/svg">
<path fill-rule="evenodd" clip-rule="evenodd" d="M20.8427 36.148C15.741 42.6029 10.8495 50.6075 10.8004 56.5907C10.7813 58.8419 11.4484 60.8072 13.0485 62.2957C15.3512 64.4396 17.8884 65.1955 20.4131 65.2C24.1027 65.2055 27.7664 63.6018 30.635 62.3653C35.4661 60.2837 88.8697 35.2981 88.8697 35.2981C89.385 35.0199 89.2884 34.6734 88.6435 34.8464C88.3833 34.9165 30.5054 51.8152 30.5054 51.8152C29.4091 52.1492 28.2763 52.324 27.137 52.3347C22.689 52.3631 18.731 49.703 18.763 44.0976C18.7754 41.9042 19.3986 39.2592 20.8427 36.148Z" fill="#0F0F0F"/>
</svg>
