<svg width="100" height="100" viewBox="0 0 100 100" fill="none" xmlns="http://www.w3.org/2000/svg">
<path fill-rule="evenodd" clip-rule="evenodd" d="M82.6492 25.4152C82.0134 24.3897 80.6394 24.6971 78.9781 25.4975C76.8256 26.4196 72.9505 30.7256 72.0073 33.1251C71.1666 36.5694 69.198 39.7482 65.9989 43.1723C62.7797 45.7969 57.0594 44.7513 53.7579 42.6592C53.553 42.6592 39.9993 32.0996 39.9993 32.0996C35.1399 28.2657 31.7561 26.6044 27.6761 26.1123C27.4711 25.9896 27.2864 25.7847 27.2251 25.6411C26.5893 24.2259 26.4667 24.3494 26.0148 24C25.4823 24.4107 25.0926 24.6358 24.5593 24.7995C24.3133 24.7995 24.2721 24.7995 24.1285 24.7181C23.8009 24.5745 23.4524 24.2872 23.1039 24.2671C22.6932 24.3494 22.3656 25.1691 21.8121 25.9896C21.8121 25.9896 20.8681 26.8093 20.0073 27.5266C19.6789 27.8138 19.6377 28.2657 19.4127 28.5319C18.9617 29.0241 18.4283 29.8236 18.346 29.8236C18.1411 30.3972 18.0596 30.9104 18.4283 31.1766C18.4283 31.8124 18.7567 31.9762 18.8794 32.1198C18.9818 32.3247 19.0028 32.407 19.1464 32.5506C19.3925 32.6531 19.5974 32.6942 19.8435 32.7556C21.1554 33.9658 21.6887 33.9448 23.2063 33.7399C25.83 33.9246 25.605 34.8065 25.5436 36.1394C25.3799 36.3443 25.3387 36.3233 25.154 36.4257C23.9849 36.4257 22.7545 36.1595 21.5862 36.1595C19.023 36.3854 16.8083 36.8364 17.0132 39.9322C17.1778 41.1424 19.3715 42.8238 20.5204 40.5478C20.6842 39.5013 21.5652 39.9733 22.3245 40.2194C26.9168 42.2082 30.5879 43.2337 33.0277 41.1626C33.7659 40.2404 34.2169 40.8963 34.9753 41.4498C38.6665 45.8381 43.9568 48.6877 52.0967 48.7902C54.8036 49.4671 56.8747 50.595 57.9001 53.2599C60.4214 59.7193 63.6204 64.9273 68.3161 67.6543C67.9264 71.7352 68.091 75.1181 72.2122 76C73.299 75.1181 71.7814 73.7853 73.0319 70.792C72.9295 69.4592 71.7814 68.3724 71.3917 65.8293C66.5935 61.8929 68.6235 60.2728 67.9062 57.6482C67.8441 53.8142 67.0042 50.8823 65.3841 47.9705C65.1994 47.4985 65.5068 47.1499 65.9376 46.9039C68.6445 44.8739 70.121 42.8851 70.7769 40.9576C71.7814 37.5335 73.4829 34.8476 75.9026 32.9202C77.9535 31.2791 79.9011 30.7668 82.1159 29.3104C83.489 27.0554 83.2841 26.4406 82.6492 25.4152Z" fill="#0F0F0F"/>
</svg>
