<svg width="100" height="100" viewBox="0 0 100 100" fill="none" xmlns="http://www.w3.org/2000/svg">
<mask id="mask0_175_282" style="mask-type:luminance" maskUnits="userSpaceOnUse" x="10" y="31" width="80" height="38">
<path d="M10 68.9184H90V31.6H10V68.9184Z" fill="white"/>
</mask>
<g mask="url(#mask0_175_282)">
<path fill-rule="evenodd" clip-rule="evenodd" d="M100.425 84.024C100.493 83.7124 100.562 83.3106 100.562 82.8594C100.562 80.4285 98.6341 77.7814 95.5746 77.7814C92.6012 77.7814 90.4976 80.2878 90.4976 83.0158C90.4976 85.8307 92.7229 88.1274 95.5914 88.1274C97.8503 88.1274 99.6948 86.5117 100.25 84.7732H97.8168C97.3813 85.5727 96.6186 86.006 95.5925 86.006C93.9389 86.006 93.0356 84.6504 92.9338 84.023L100.425 84.024ZM92.8625 82.1639C93.2979 80.3729 94.7405 79.9038 95.5914 79.9038C96.7403 79.9038 97.9385 80.6163 98.1987 82.1639H92.8625ZM36.7735 55.8301L33.6837 61.1663L16.5818 60.2042L18.293 57.2318L36.7735 55.8301ZM49.1373 38.8268L50.6869 44.716L26.419 43.1212L28.1303 40.1499L49.1373 38.8268ZM33.0489 31.6083L47.255 31.6188L48.3262 35.6457L31.3398 34.5797L33.0489 31.6083ZM31.8004 64.4849L29.3348 68.7257L11.6621 68.7446L13.3733 65.7754L31.8004 64.4849ZM62.8261 53.0435L58.5485 60.4581H62.6226C64.5111 60.4581 67.8927 59.5159 68.9335 56.8279C69.8987 54.3308 68.1256 53.0403 66.8886 53.0403L62.8261 53.0435ZM66.9054 45.9509L70.459 45.9299C72.8239 45.9162 75.2905 44.8345 76.1928 42.6396C77.0249 40.6042 75.9064 38.8688 74.4239 38.8751L70.9867 38.8709L66.9054 45.9509ZM50.8212 44.716L54.4095 38.4911L66.5528 37.7115L66.9767 36.9561L55.743 36.1703L58.3702 31.6083H79.203C85.6094 31.6083 90.3486 33.8977 88.5062 40.6336C87.9522 42.6743 85.3481 47.8111 77.711 49.963C79.332 50.156 83.3693 51.946 82.6737 56.5834C81.4378 64.8059 70.7905 68.7205 64.8689 68.7226L40.2726 68.7341L39.0608 63.976L51.9428 63.0674L52.3803 62.3141L38.4082 61.4643L36.9026 55.8228L56.7848 54.6623L57.2161 53.9153L21.4983 51.6616L23.2095 48.6924L61.6562 46.1953L62.0917 45.4472L50.8212 44.716Z" fill="#0F0F0F"/>
</g>
</svg>
