<svg width="38" height="29" viewBox="0 0 38 29" fill="none" xmlns="http://www.w3.org/2000/svg">
<rect width="38" height="29" fill="#D6F5E1"/>
<path d="M6.044 20C5.652 20 5.456 19.804 5.456 19.412V11.096C5.456 10.704 5.652 10.508 6.044 10.508C6.24467 10.508 6.44067 10.6247 6.632 10.858L12.26 18.11H11.966V11.096C11.966 10.704 12.162 10.508 12.554 10.508C12.946 10.508 13.142 10.704 13.142 11.096V19.412C13.142 19.804 12.946 20 12.554 20C12.344 20 12.148 19.8833 11.966 19.65L6.338 12.398H6.632V19.412C6.632 19.804 6.436 20 6.044 20ZM16.8917 16.934V17.27C16.8917 17.872 17.0014 18.2827 17.2207 18.502C17.44 18.7167 17.853 18.824 18.4597 18.824H19.6077C20.0837 18.824 20.436 18.7797 20.6647 18.691C20.8934 18.6023 21.045 18.446 21.1197 18.222C21.171 18.0447 21.241 17.9093 21.3297 17.816C21.423 17.7227 21.563 17.676 21.7497 17.676C21.9457 17.676 22.095 17.7273 22.1977 17.83C22.3004 17.9327 22.333 18.082 22.2957 18.278C22.193 18.8567 21.9177 19.2883 21.4697 19.573C21.0217 19.8577 20.401 20 19.6077 20H18.4597C17.531 20 16.8404 19.776 16.3877 19.328C15.9397 18.88 15.7157 18.194 15.7157 17.27V15.646C15.7157 14.6987 15.9397 14.0033 16.3877 13.56C16.8404 13.112 17.531 12.8927 18.4597 12.902H19.6077C20.541 12.902 21.2317 13.126 21.6797 13.574C22.1277 14.0173 22.3517 14.708 22.3517 15.646V16.346C22.3517 16.738 22.1557 16.934 21.7637 16.934H16.8917ZM18.4597 14.078C17.853 14.0687 17.44 14.1737 17.2207 14.393C17.0014 14.6123 16.8917 15.03 16.8917 15.646V15.758H21.1757V15.646C21.1757 15.0347 21.066 14.6217 20.8467 14.407C20.632 14.1877 20.219 14.078 19.6077 14.078H18.4597ZM26.2753 20C25.9673 20 25.762 19.8413 25.6593 19.524L23.7133 13.672C23.592 13.3173 23.718 13.0747 24.0913 12.944C24.46 12.818 24.7073 12.944 24.8333 13.322L26.4153 18.033H26.3243L27.8153 13.322C27.918 13.014 28.142 12.86 28.4873 12.86C28.814 12.86 29.024 13.0233 29.1173 13.35L30.5103 17.984H30.4543L32.0713 13.308C32.2066 12.93 32.4586 12.8087 32.8273 12.944C33.196 13.0747 33.3126 13.3267 33.1773 13.7L31.0493 19.524C30.9326 19.8413 30.7133 20 30.3913 20C30.06 20 29.8453 19.8367 29.7473 19.51L28.3053 14.694H28.4593L26.8913 19.524C26.8446 19.678 26.7676 19.797 26.6603 19.881C26.553 19.9603 26.4246 20 26.2753 20Z" fill="#0F0F0F"/>
</svg>
