<svg width="41" height="41" viewBox="0 0 41 41" fill="none" xmlns="http://www.w3.org/2000/svg">
<g clip-path="url(#clip0_63_65)">
<path fill-rule="evenodd" clip-rule="evenodd" d="M23.9167 5.125C24.8603 5.125 25.6251 5.88985 25.6251 6.83333C25.6251 10.1346 27.9728 12.8962 31.0904 13.5298C32.0149 13.7177 32.6122 14.6196 32.4242 15.5442C32.2363 16.4687 31.3343 17.0659 30.4098 16.878C28.5952 16.5092 26.9542 15.661 25.6251 14.4713V29.0417C25.6251 33.7591 21.8008 37.5833 17.0834 37.5833C12.366 37.5833 8.54175 33.7591 8.54175 29.0417C8.54175 24.3243 12.366 20.5 17.0834 20.5C18.0269 20.5 18.7917 21.2648 18.7917 22.2083C18.7917 23.1518 18.0269 23.9167 17.0834 23.9167C14.253 23.9167 11.9584 26.2111 11.9584 29.0417C11.9584 31.8722 14.253 34.1667 17.0834 34.1667C19.914 34.1667 22.2084 31.8722 22.2084 29.0417V6.83333C22.2084 5.88985 22.9732 5.125 23.9167 5.125Z" fill="#F7F5FF"/>
</g>
<defs>
<clipPath id="clip0_63_65">
<rect width="41" height="41" fill="white"/>
</clipPath>
</defs>
</svg>
