<svg width="20" height="20" viewBox="0 0 20 20" fill="none" xmlns="http://www.w3.org/2000/svg">
<path d="M17.5 4.98335C14.725 4.70835 11.9333 4.56668 9.15 4.56668C7.5 4.56668 5.85 4.65001 4.2 4.81668L2.5 4.98335" stroke="#BF1300" stroke-width="1.5" stroke-linecap="round" stroke-linejoin="round"/>
<path d="M7.08337 4.14166L7.26671 3.04999C7.40004 2.25832 7.50004 1.66666 8.90837 1.66666H11.0917C12.5 1.66666 12.6084 2.29166 12.7334 3.05832L12.9167 4.14166" stroke="#BF1300" stroke-width="1.5" stroke-linecap="round" stroke-linejoin="round"/>
<path d="M15.7083 7.61667L15.1666 16.0083C15.075 17.3167 15 18.3333 12.675 18.3333H7.32496C4.99996 18.3333 4.92496 17.3167 4.83329 16.0083L4.29163 7.61667" stroke="#BF1300" stroke-width="1.5" stroke-linecap="round" stroke-linejoin="round"/>
<path d="M8.60828 13.75H11.3833" stroke="#BF1300" stroke-width="1.5" stroke-linecap="round" stroke-linejoin="round"/>
<path d="M7.91663 10.4167H12.0833" stroke="white" stroke-width="1.5" stroke-linecap="round" stroke-linejoin="round"/>
</svg>
